{
  "accessors": [
    {
      "bufferView": 2,
      "componentType": 5126,
      "count": 1570,
      "max": [
        1.2403600215911865,
        0.4997600018978119,
        -0.006260000169277191
      ],
      "min": [
        -1.6915099620819092,
        -2.4379398822784424,
        -6.020209789276123
      ],
      "type": "VEC3"
    },
    {
      "bufferView": 2,
      "byteOffset": 18840,
      "componentType": 5126,
      "count": 1570,
      "max": [
        1.0,
        0.9893404841423035,
        1.0
      ],
      "min": [
        -1.0,
        -0.999721884727478,
        -1.0
      ],
      "type": "VEC3"
    },
    {
      "bufferView": 1,
      "componentType": 5126,
      "count": 1570,
      "max": [
        0.7598900198936462,
        0.9490500092506409
      ],
      "min": [
        0.06369999796152115,
        -0.03434000164270401
      ],
      "type": "VEC2"
    },
    {
      "bufferView": 0,
      "componentType": 5125,
      "count": 2322,
      "type": "SCALAR"
    }
  ],
  "asset": {
    "extras": {
      "author": "nolanfa (https://sketchfab.com/nolanfa)",
      "license": "CC-BY-4.0 (http://creativecommons.org/licenses/by/4.0/)",
      "source": "https://sketchfab.com/3d-models/monk-fd3a96ae4eed48ff8fbb462a07281c27",
      "title": "Monk"
    },
    "generator": "Sketchfab-12.67.0",
    "version": "2.0"
  },
  "bufferViews": [
    {
      "buffer": 0,
      "byteLength": 9288,
      "name": "floatBufferViews",
      "target": 34963
    },
    {
      "buffer": 0,
      "byteLength": 12560,
      "byteOffset": 9288,
      "byteStride": 8,
      "name": "floatBufferViews",
      "target": 34962
    },
    {
      "buffer": 0,
      "byteLength": 37680,
      "byteOffset": 21848,
      "byteStride": 12,
      "name": "floatBufferViews",
      "target": 34962
    }
  ],
  "buffers": [
    {
      "byteLength": 59528,
      "uri": "scene.bin"
    }
  ],
  "images": [
    {
      "uri": "textures/Material.001_baseColor.png"
    }
  ],
  "materials": [
    {
      "doubleSided": true,
      "emissiveFactor": [
        0.7975460122699386,
        0.7975460122699386,
        0.7975460122699386
      ],
      "emissiveTexture": {
        "index": 0
      },
      "name": "Material.001",
      "pbrMetallicRoughness": {
        "baseColorTexture": {
          "index": 0
        },
        "metallicFactor": 0.0,
        "roughnessFactor": 0.6
      }
    }
  ],
  "meshes": [
    {
      "name": "moine.002_0",
      "primitives": [
        {
          "attributes": {
            "NORMAL": 1,
            "POSITION": 0,
            "TEXCOORD_0": 2
          },
          "indices": 3,
          "material": 0,
          "mode": 4
        }
      ]
    }
  ],
  "nodes": [
    {
      "children": [
        1
      ],
      "matrix": [
        0.2635155916213989,
        0.0,
        0.0,
        0.0,
        0.0,
        5.851221543315941e-17,
        -0.2635155916213989,
        0.0,
        0.0,
        0.2635155916213989,
        5.851221543315941e-17,
        0.0,
        0.0,
        0.0,
        0.0,
        1.0
      ],
      "name": "Sketchfab_model"
    },
    {
      "children": [
        2
      ],
      "name": "Root"
    },
    {
      "children": [
        3
      ],
      "matrix": [
        1.0,
        0.0,
        0.0,
        0.0,
        0.0,
        1.0,
        0.0,
        0.0,
        0.0,
        0.0,
        1.0,
        0.0,
        0.1,
        0.0,
        6.0,
        1.0
      ],
      "name": "moine.002"
    },
    {
      "mesh": 0,
      "name": "moine.002_0"
    }
  ],
  "samplers": [
    {
      "magFilter": 9729,
      "minFilter": 9987,
      "wrapS": 10497,
      "wrapT": 10497
    }
  ],
  "scene": 0,
  "scenes": [
    {
      "name": "Sketchfab_Scene",
      "nodes": [
        0
      ]
    }
  ],
  "textures": [
    {
      "sampler": 0,
      "source": 0
    }
  ]
}
