{
  "accessors": [
    {
      "bufferView": 2,
      "componentType": 5126,
      "count": 1594,
      "max": [
        0.1532990038394928,
        0.3089030086994171,
        1.8177679777145386
      ],
      "min": [
        -0.2339800000190735,
        -0.1482129991054535,
        1.2404210567474365
      ],
      "type": "VEC3"
    },
    {
      "bufferView": 2,
      "byteOffset": 19128,
      "componentType": 5126,
      "count": 1594,
      "max": [
        0.9826450943946838,
        0.9927952885627747,
        0.9946585297584534
      ],
      "min": [
        -0.9826450943946838,
        -0.9927952885627747,
        -0.9946585297584534
      ],
      "type": "VEC3"
    },
    {
      "bufferView": 1,
      "componentType": 5126,
      "count": 1594,
      "max": [
        0.48829999566078186,
        0.5205000042915344
      ],
      "min": [
        -0.538100004196167,
        0.19920000433921814
      ],
      "type": "VEC2"
    },
    {
      "bufferView": 0,
      "componentType": 5125,
      "count": 4230,
      "type": "SCALAR"
    },
    {
      "bufferView": 2,
      "byteOffset": 38256,
      "componentType": 5126,
      "count": 9995,
      "max": [
        0.8354719877243042,
        0.30382901430130005,
        1.8147820234298706
      ],
      "min": [
        -0.8430529832839966,
        -0.25940799713134766,
        -0.0069989999756217
      ],
      "type": "VEC3"
    },
    {
      "bufferView": 2,
      "byteOffset": 158196,
      "componentType": 5126,
      "count": 9995,
      "max": [
        0.9995284676551819,
        0.9999226331710815,
        0.9998698234558105
      ],
      "min": [
        -0.9995284676551819,
        -0.9999226331710815,
        -0.9998698234558105
      ],
      "type": "VEC3"
    },
    {
      "bufferView": 1,
      "byteOffset": 12752,
      "componentType": 5126,
      "count": 9995,
      "max": [
        0.9922000169754028,
        0.9887999892234802
      ],
      "min": [
        -0.5005000233650208,
        0.19920000433921814
      ],
      "type": "VEC2"
    },
    {
      "bufferView": 0,
      "byteOffset": 16920,
      "componentType": 5125,
      "count": 43338,
      "type": "SCALAR"
    },
    {
      "bufferView": 2,
      "byteOffset": 278136,
      "componentType": 5126,
      "count": 9780,
      "max": [
        0.22158999741077423,
        0.3059160113334656,
        1.8926060199737549
      ],
      "min": [
        -0.2694750130176544,
        -0.1720460057258606,
        0.6356769800186157
      ],
      "type": "VEC3"
    },
    {
      "bufferView": 2,
      "byteOffset": 395496,
      "componentType": 5126,
      "count": 9780,
      "max": [
        0.9999918937683105,
        0.9994637370109558,
        0.9990964531898499
      ],
      "min": [
        -0.9999918937683105,
        -0.9994637370109558,
        -0.9990964531898499
      ],
      "type": "VEC3"
    },
    {
      "bufferView": 1,
      "byteOffset": 92712,
      "componentType": 5126,
      "count": 9780,
      "max": [
        534.1447143554688,
        4957.033203125
      ],
      "min": [
        -309.32958984375,
        0.003599999938160181
      ],
      "type": "VEC2"
    },
    {
      "bufferView": 0,
      "byteOffset": 190272,
      "componentType": 5125,
      "count": 39528,
      "type": "SCALAR"
    },
    {
      "bufferView": 2,
      "byteOffset": 512856,
      "componentType": 5126,
      "count": 2058,
      "max": [
        0.12156499922275543,
        0.30485799908638,
        1.803354024887085
      ],
      "min": [
        -0.27854999899864197,
        -0.11721999943256378,
        1.2162150144577026
      ],
      "type": "VEC3"
    },
    {
      "bufferView": 2,
      "byteOffset": 537552,
      "componentType": 5126,
      "count": 2058,
      "max": [
        0.999863862991333,
        0.9995198845863342,
        0.9999988079071045
      ],
      "min": [
        -0.999863862991333,
        -0.9995198845863342,
        -0.9999988079071045
      ],
      "type": "VEC3"
    },
    {
      "bufferView": 1,
      "byteOffset": 170952,
      "componentType": 5126,
      "count": 2058,
      "max": [
        0.9911999702453613,
        0.8237000107765198
      ],
      "min": [
        -0.9897000193595886,
        0.010300000198185444
      ],
      "type": "VEC2"
    },
    {
      "bufferView": 0,
      "byteOffset": 348384,
      "componentType": 5125,
      "count": 6816,
      "type": "SCALAR"
    },
    {
      "bufferView": 2,
      "byteOffset": 562248,
      "componentType": 5126,
      "count": 164,
      "max": [
        0.04406699910759926,
        -0.08552899956703186,
        1.776898980140686
      ],
      "min": [
        -0.04958700016140938,
        -0.1071539968252182,
        1.7469170093536377
      ],
      "type": "VEC3"
    },
    {
      "bufferView": 2,
      "byteOffset": 564216,
      "componentType": 5126,
      "count": 164,
      "max": [
        0.9979631304740906,
        0.9982056021690369,
        0.9991763830184937
      ],
      "min": [
        -0.9979631304740906,
        -0.9982056021690369,
        -0.9991763830184937
      ],
      "type": "VEC3"
    },
    {
      "bufferView": 1,
      "byteOffset": 187416,
      "componentType": 5126,
      "count": 164,
      "max": [
        0.8026999831199646,
        0.15199999511241913
      ],
      "min": [
        0.7348999977111816,
        0.00860000029206276
      ],
      "type": "VEC2"
    },
    {
      "bufferView": 0,
      "byteOffset": 375648,
      "componentType": 5125,
      "count": 864,
      "type": "SCALAR"
    }
  ],
  "asset": {
    "extras": {
      "author": "hwk10037 (https://sketchfab.com/hwk10037)",
      "license": "CC-BY-4.0 (http://creativecommons.org/licenses/by/4.0/)",
      "source": "https://sketchfab.com/3d-models/green-arrow-d366ac473aa54c0a82fc8e3f3c3e9dee",
      "title": "Green Arrow"
    },
    "generator": "Sketchfab-12.63.0",
    "version": "2.0"
  },
  "bufferViews": [
    {
      "buffer": 0,
      "byteLength": 379104,
      "name": "floatBufferViews",
      "target": 34963
    },
    {
      "buffer": 0,
      "byteLength": 188728,
      "byteOffset": 379104,
      "byteStride": 8,
      "name": "floatBufferViews",
      "target": 34962
    },
    {
      "buffer": 0,
      "byteLength": 566184,
      "byteOffset": 567832,
      "byteStride": 12,
      "name": "floatBufferViews",
      "target": 34962
    }
  ],
  "buffers": [
    {
      "byteLength": 1134016,
      "uri": "scene.bin"
    }
  ],
  "images": [
    {
      "uri": "textures/GA_CW_D_baseColor.png"
    }
  ],
  "materials": [
    {
      "doubleSided": true,
      "name": "GA_CW_D",
      "pbrMetallicRoughness": {
        "baseColorTexture": {
          "index": 0
        },
        "metallicFactor": 0.0
      }
    },
    {
      "doubleSided": true,
      "name": "27_eye_0_2_0_0",
      "pbrMetallicRoughness": {
        "baseColorTexture": {
          "index": 0
        },
        "metallicFactor": 0.0,
        "roughnessFactor": 0.6
      }
    }
  ],
  "meshes": [
    {
      "name": "Object_0",
      "primitives": [
        {
          "attributes": {
            "NORMAL": 1,
            "POSITION": 0,
            "TEXCOORD_0": 2
          },
          "indices": 3,
          "material": 0,
          "mode": 4
        }
      ]
    },
    {
      "name": "Object_1",
      "primitives": [
        {
          "attributes": {
            "NORMAL": 5,
            "POSITION": 4,
            "TEXCOORD_0": 6
          },
          "indices": 7,
          "material": 0,
          "mode": 4
        }
      ]
    },
    {
      "name": "Object_2",
      "primitives": [
        {
          "attributes": {
            "NORMAL": 9,
            "POSITION": 8,
            "TEXCOORD_0": 10
          },
          "indices": 11,
          "material": 0,
          "mode": 4
        }
      ]
    },
    {
      "name": "Object_3",
      "primitives": [
        {
          "attributes": {
            "NORMAL": 13,
            "POSITION": 12,
            "TEXCOORD_0": 14
          },
          "indices": 15,
          "material": 0,
          "mode": 4
        }
      ]
    },
    {
      "name": "Object_4",
      "primitives": [
        {
          "attributes": {
            "NORMAL": 17,
            "POSITION": 16,
            "TEXCOORD_0": 18
          },
          "indices": 19,
          "material": 1,
          "mode": 4
        }
      ]
    }
  ],
  "nodes": [
    {
      "children": [
        1
      ],
      "matrix": [
        1.0,
        0.0,
        0.0,
        0.0,
        0.0,
        2.220446049250313e-16,
        -1.0,
        0.0,
        0.0,
        1.0,
        2.220446049250313e-16,
        0.0,
        0.0,
        0.0,
        0.0,
        1.0
      ],
      "name": "Sketchfab_model"
    },
    {
      "children": [
        2,
        3,
        4,
        5,
        6
      ],
      "name": "untitled-scene.obj.cleaner.materialmerger.gles"
    },
    {
      "mesh": 0,
      "name": "Object_2"
    },
    {
      "mesh": 1,
      "name": "Object_3"
    },
    {
      "mesh": 2,
      "name": "Object_4"
    },
    {
      "mesh": 3,
      "name": "Object_5"
    },
    {
      "mesh": 4,
      "name": "Object_6"
    }
  ],
  "samplers": [
    {
      "magFilter": 9729,
      "minFilter": 9987,
      "wrapS": 10497,
      "wrapT": 10497
    }
  ],
  "scene": 0,
  "scenes": [
    {
      "name": "Sketchfab_Scene",
      "nodes": [
        0
      ]
    }
  ],
  "textures": [
    {
      "sampler": 0,
      "source": 0
    }
  ]
}
